<svg version="1.2" baseProfile="tiny-ps" xmlns="http://www.w3.org/2000/svg" viewBox="0 0 1656 1698" width="1656" height="1698">
	<title>SVG_Logo_SG_RGB-01-svg</title>
	<style>
		tspan { white-space:pre }
		.shp0 { fill: #868686 } 
		.shp1 { fill: #589d53 } 
		.shp2 { fill: #3a66a9 } 
		.shp3 { fill: #e69022 } 
	</style>
	<g id="Layer">
		<g id="Layer">
			<path id="Layer" fill-rule="evenodd" class="shp0" d="M669.17 737.19C554.71 696.92 536.15 669.05 536.15 613.29C536.15 563.73 551.62 511.08 669.17 511.08C712.47 511.08 771.25 523.47 823.84 545.15L836.21 551.34L867.14 458.42L857.86 452.23C811.46 424.35 746.5 408.86 669.17 408.86C486.66 405.76 421.7 517.27 421.7 622.59C421.7 746.48 489.75 792.94 616.58 839.41C752.69 888.97 765.06 913.74 765.06 969.5C765.06 1028.35 712.47 1065.52 625.86 1065.52C563.99 1065.52 492.84 1050.03 437.16 1025.25L424.79 1019.06L390.76 1115.08L400.04 1121.27C461.91 1152.25 526.87 1167.73 607.3 1167.73C774.34 1167.73 879.52 1087.2 879.52 954.01C879.52 848.7 826.93 792.94 669.17 737.19ZM1176.48 796.04L1170.3 885.87L1328.06 885.87L1328.06 1034.54C1278.56 1059.32 1238.35 1068.62 1188.86 1068.62C1049.65 1068.62 981.6 981.89 984.69 796.04C984.69 613.29 1058.93 507.98 1188.86 507.98C1256.91 507.98 1315.69 520.37 1374.46 548.25L1386.83 554.44L1420.86 461.52L1411.58 455.32C1340.43 421.25 1281.66 411.96 1191.95 411.96C993.97 411.96 870.24 563.73 870.24 808.43C870.24 1053.13 969.23 1170.83 1176.48 1170.83C1266.19 1170.83 1358.99 1146.05 1433.23 1096.49L1439.42 1093.4L1439.42 802.24L1176.48 796.04Z" />
			<path id="Layer" class="shp0" d="M604.21 139.38L529.96 77.44L434.07 0C347.46 55.75 267.03 123.9 202.07 204.43L267.03 309.74C229.91 362.4 198.97 418.15 174.23 477.01L270.12 477.01L270.12 477.01C282.49 446.03 301.05 418.15 316.52 390.28C387.67 288.06 486.66 198.24 604.21 139.38L604.21 139.38Z" />
			<path id="Layer" class="shp1" d="M616.58 1427.92L616.58 1427.92C585.65 1412.43 557.81 1396.95 529.96 1378.36C421.7 1307.12 335.08 1211.1 276.31 1093.4L276.31 1093.4L214.44 1167.73L137.1 1263.76C192.79 1350.48 260.84 1431.02 341.27 1496.06L446.44 1431.02C499.03 1468.19 554.71 1499.16 613.49 1523.94L616.58 1427.92Z" />
			<path id="Layer" class="shp2" d="M220.63 932.33C211.35 882.77 205.16 833.21 205.16 780.55C205.16 700.02 217.53 622.59 242.28 548.25L242.28 548.25L146.38 557.54L25.74 569.93C10.28 638.07 1 706.22 1 777.46C1 811.53 4.09 845.6 7.18 879.67L127.82 907.55C137.1 972.6 155.66 1034.54 180.41 1093.4L248.47 1025.25L248.47 1025.25C236.09 994.28 226.81 963.3 220.63 932.33Z" />
			<path id="Layer" class="shp3" d="M1161.02 1452.7L1161.02 1452.7C1130.08 1461.99 1099.15 1471.28 1065.12 1477.48C1015.63 1486.77 966.13 1492.97 913.55 1492.97C833.12 1492.97 755.78 1480.58 681.54 1455.8L681.54 1455.8L690.82 1551.82L703.19 1672.62C771.25 1688.1 839.3 1697.4 910.45 1697.4C944.48 1697.4 978.51 1694.3 1012.53 1691.2L1040.37 1570.4C1105.34 1561.11 1167.2 1542.53 1225.98 1517.75L1161.02 1452.7Z" />
			<path id="Layer" class="shp0" d="M1563.16 1081.01L1563.16 1081.01C1547.69 1108.88 1532.22 1139.86 1513.66 1167.73C1485.82 1208 1454.89 1248.27 1417.77 1285.44C1362.09 1341.19 1297.13 1387.65 1225.98 1421.72L1225.98 1421.72L1300.22 1483.67L1396.11 1561.11C1454.89 1523.94 1510.57 1480.58 1560.06 1431.02C1584.81 1406.24 1606.46 1381.46 1628.12 1356.68L1563.16 1251.37C1600.28 1198.71 1631.21 1142.96 1655.96 1084.1L1563.16 1081.01Z" />
		</g>
	</g>
</svg>